<?xml version="1.0" standalone="no"?><!DOCTYPE svg PUBLIC "-//W3C//DTD SVG 1.1//EN" "http://www.w3.org/Graphics/SVG/1.1/DTD/svg11.dtd"><svg t="1482473887035" class="icon" style="" viewBox="0 0 1024 1024" version="1.1" xmlns="http://www.w3.org/2000/svg" p-id="1510" xmlns:xlink="http://www.w3.org/1999/xlink" width="40" height="40"><defs><style type="text/css"></style></defs><path d="M517.05 1019.412c-0.016 0 0 0-0.016 0-118.006 0-232.05-8.104-312.868-22.242-126.674-22.182-156.67-51.918-178.304-176.84-28.808-166.298-28.366-448.424 0.96-616.062 22.12-126.598 51.874-156.594 176.81-178.304 79.28-13.772 187.23-21.374 303.956-21.374 117.762 0 231.562 8.09 312.182 22.196 126.628 22.166 156.61 51.918 178.304 176.84 28.854 166.328 28.458 448.516-0.884 616.184-22.09 126.628-51.858 156.61-176.81 178.334C741.224 1011.856 633.486 1019.412 517.05 1019.412zM507.59 35.788c-114.99 0-221.036 7.434-298.624 20.916-111.76 19.408-131.564 39.426-151.4 152.922-28.838 164.76-29.266 441.994-0.96 605.398 19.348 111.698 39.366 131.534 152.938 151.43 79.128 13.832 191.192 21.754 307.49 21.754l0.016 0c114.73 0 220.548-7.374 298-20.78 111.79-19.44 131.594-39.458 151.43-152.984 28.824-164.806 29.22-442.072 0.884-605.49-19.44-111.744-39.458-131.564-152.954-151.43C735.466 43.71 623.614 35.788 507.59 35.788z" p-id="1511"></path><path d="M600.192 227.07c-133.892 0-246.19 92.356-276.716 216.834-2.724-0.124-5.46-0.202-8.212-0.202-97.404 0-176.368 78.952-176.382 176.352 0.006 48.7 19.746 92.73 51.662 124.638 31.918 31.924 76.016 51.548 124.722 51.548s92.804-19.964 124.722-51.882c27.646-27.65 46.13-64.666 50.59-105.812l-40.398-4.986c-14.512-1.794-19.182-12.804-10.374-24.48l78.904-104.576c8.808-11.674 20.68-10.208 26.382 3.254l51.122 120.622c5.706 13.462-1.5 23.01-16.012 21.226l-35.74-4.414c-5.426 49.714-26.264 93.504-57.542 128.27 34.72 15.07 73.008 23.468 113.272 23.468 157.364 0 284.928-127.568 284.928-284.93S757.554 227.07 600.192 227.07z" p-id="1512"></path></svg>