<?xml version="1.0" standalone="no"?><!DOCTYPE svg PUBLIC "-//W3C//DTD SVG 1.1//EN" "http://www.w3.org/Graphics/SVG/1.1/DTD/svg11.dtd"><svg t="1482474469445" class="icon" style="" viewBox="0 0 1024 1024" version="1.1" xmlns="http://www.w3.org/2000/svg" p-id="1343" xmlns:xlink="http://www.w3.org/1999/xlink" width="40" height="40"><defs><style type="text/css"></style></defs><path d="M469.272873 389.853056c12.719696-28.070312-3.508917-17.543561-3.508917-17.543561s-56.724932 92.835362-196.49014 92.835362c-22.137183 0-42.139749-2.366907-60.140729-6.343475-7.858992-26.165939-18.470677-46.188972-34.595936-49.211818 0 0 0.699941 16.304338 2.056845 39.635719-72.03871-26.845415-102.05535-78.231759-102.05535-78.231759s-12.280698-15.350616-7.017834 7.894807c3.991917 17.632589 34.245965 87.240947 112.362091 119.833249 3.338025 44.036959 8.18645 91.085508 14.391778 106.920148 12.718673 32.456203 28.508287 35.526121 76.315106 35.526121s73.683163-3.946892 80.700997-31.578206c7.017834-27.631314 14.473643-90.349751 13.596669-93.420693-0.876973-3.069919 0.343831-10.742668-12.719696 0.438998-17.250896 14.766308-35.672454 74.56116-40.642652 80.263022-5.298679 6.078439-43.274596 15.057951-65.057715 6.725168-11.712763-8.405437-17.451464-49.928133-25.38618-92.451622 14.896268 2.930749 31.068599 4.587482 48.631604 4.587482C415.764192 515.728928 456.553177 417.923368 469.272873 389.853056z" p-id="1344" fill="#1296db"></path><path d="M530.774599 501.516228c-5.28333-2.868327-11.210319-5.03569-17.784038-6.507204-6.576789-1.466398-13.205766-2.201132-19.883863-2.201132-6.683213 0-13.31219 0.734734-19.883863 2.201132-6.576789 1.471514-12.503778 3.638877-17.784038 6.507204-5.28333 2.871397-9.537214 6.505158-12.770861 10.910491-3.232624 4.403287-4.850471 9.477862-4.850471 15.213493l0 75.266218c0 5.874801 1.616824 10.980076 4.850471 15.314801 3.232624 4.337795 7.486508 7.940856 12.770861 10.809183 5.28026 2.871397 11.206226 5.040806 17.784038 6.507204 6.571672 1.466398 13.20065 2.201132 19.883863 2.201132 1.397836 0 2.785439-0.040932 4.166903-0.100284 1.173732 5.229095 3.464915 9.114588 5.686513 11.790534 2.583848 3.111874 6.414083 4.89652 10.459213 4.89652l27.859511 0c2.217505 0 4.015454-1.796926 4.015454-4.01443l0-16.165168c0-2.232854-1.817392-4.074805-4.048199-4.01136-2.205225 0.062422-4.913916-0.095167-7.062859-0.954745-0.914836-0.366344-1.509377-0.974188-1.971911-1.656733 6.334265-4.433986 11.333116-10.000771 11.333116-10.000771 3.234671-4.136204 4.850471-9.008164 4.850471-14.613836l0-75.266218c0-5.735631-1.6158-10.810207-4.850471-15.213493C540.312836 508.021386 536.054859 504.387625 530.774599 501.516228zM515.416819 602.906429l0 0.401136c0 0-0.366344 12.249999-15.196097 13.21293-1.939165 0.534166-4.314259 0.800225-7.113001 0.800225-6.03546 0-11.264555-1.166569-15.681144-3.5038-4.420683-2.333138-6.626931-5.970992-6.626931-10.910491l0-75.266218c0-4.935406 2.206248-8.573259 6.626931-10.909467 4.41659-2.333138 9.645684-3.5038 15.681144-3.5038 6.03239 0 11.261485 1.170662 15.681144 3.5038 4.415566 2.337231 6.628978 5.974062 6.628978 10.909467L515.417843 602.906429z" p-id="1345" fill="#1296db"></path><path d="M578.464761 494.00823l32.978089 0 0 142.529157-32.978089 0 0-142.529157Z" p-id="1346" fill="#1296db"></path><path d="M724.279754 579.887157 723.634048 579.887157 673.842015 494.00823 642.156362 494.00823 642.156362 636.537388 675.135474 636.537388 675.135474 550.85903 675.78118 550.85903 726.220966 636.537388 757.25989 636.537388 757.25989 494.00823 724.279754 494.00823Z" p-id="1347" fill="#1296db"></path><path d="M787.972379 494.00823l32.978089 0 0 142.529157-32.978089 0 0-142.529157Z" p-id="1348" fill="#1296db"></path><path d="M926.677441 494.00823l0 108.49911c0 5.072529-1.941212 8.807596-5.819542 11.210319-3.880377 2.4017-8.730848 3.603061-14.550391 3.603061-5.819542 0-10.667967-1.201361-14.549368-3.603061-3.880377-2.4017-5.819542-6.136767-5.819542-11.210319L885.938598 494.00823l-32.978089 0 0 110.499673c0 4.673439 1.397836 9.008164 4.202719 13.012362 2.797719 4.004197 6.628978 7.506974 11.477402 10.509355 4.850471 3.003404 10.509355 5.374404 16.974603 7.106862 6.467295 1.733481 13.363356 2.602268 20.692275 2.602268 7.325849 0 14.227026-0.868787 20.692275-2.602268 6.467295-1.732457 12.125155-4.103458 16.974603-7.106862 4.850471-3.001357 8.674567-6.505158 11.478426-10.509355 2.797719-4.004197 4.202719-8.338922 4.202719-13.012362L959.65553 494.00823 926.677441 494.00823z" p-id="1349" fill="#1296db"></path></svg>