<?xml version="1.0" encoding="utf-8"?>
<!-- Generator: Adobe Illustrator 23.0.3, SVG Export Plug-In . SVG Version: 6.00 Build 0)  -->
<svg version="1.1" id="Layer_1" xmlns="http://www.w3.org/2000/svg" xmlns:xlink="http://www.w3.org/1999/xlink" x="0px" y="0px"
	 viewBox="0 0 397.8 350.1" style="enable-background:new 0 0 397.8 350.1;" xml:space="preserve">
<style type="text/css">
	.st0{opacity:0.25;}
	.st1{fill:#FFFFFF;}
</style>
<g class="st0">
	<path class="st1" d="M132.3,197.1c3.4-3.2,7.2-6.9,11.2-10.4c3.5-3.1,4.5-6.8,3.5-11.3c-0.8-4.1-1.5-8.2-2.1-12.3
		c-0.2-1.2,0.2-2.5,0.3-3.8c1.4,0.2,2.9,0.1,4.1,0.6c3.8,1.8,7.5,3.6,11.1,5.7c4,2.3,7.8,2.3,11.8,0c3.5-2,7-3.8,10.6-5.6
		c1.4-0.7,3-1.1,5.6-2c-0.9,6.3-1.3,11.5-2.6,16.6c-1.3,5.2,0.4,9,4.1,12.4c3.8,3.5,7.5,7.2,11.2,10.8c-0.2,0.6-0.4,1.2-0.6,1.7
		c-4.3,0.7-8.6,1.8-12.9,2.1c-7.1,0.4-11.8,3.5-14.3,10.3c-1.5,4.1-3.9,7.9-6.2,12.4c-7.4-6.3-6.6-17.9-15.9-21.6
		c-4.4,4.4-2.6,8.4-0.4,11.6c-4,1.8-7.8,3.5-12.1,5.5c-0.6-3.7-2.5-7.8-8.4-8c2.4-2.8,5.2-4.8,5.8-7.2
		C136.5,203,134.1,200.5,132.3,197.1z"/>
	<path class="st1" d="M256.6,102.6c11.3-5.9,13.6-15,10.1-26.9c9.8,7.7,19,8.5,28.4,0.2c0.2,0.5,0.5,0.9,0.7,1.4
		c-0.6,4.9-2.6,10.3-1.3,14.7c1.4,4.5,6,8,9.6,12.6c-5.3,1.1-11.1,0.9-14.8,3.5c-3.9,2.7-5.8,8.2-9,13c-2.7-4.7-4.3-10.3-7.9-13.1
		c-3.7-2.8-9.6-2.9-14.5-4.3C257.5,103.3,257,102.9,256.6,102.6z"/>
	<path class="st1" d="M271.7,146.6c2.5,9.5,7.4,15.5,18.2,15.9c-8.6,5.3-12.1,12.1-9.9,22.2c-7.7-5.8-15.1-8.6-23.2-1.4
		c0.8,1.6,1.8,3.6,3.3,6.4c-5.2-0.5-9.7,0-12.3,5.3c-1.3-5.1-3.4-8.9-10.1-9.6c5.1-3.4,9-6.1,6.7-12.8c2.2,1.4,3.3,1.8,4,2.6
		c2.5,2.6,5.8,2.8,8.1,0.7c2.5-2.4,2.7-6,0.5-9.1c-1.8-2.5-3.8-4.9-5.9-8.4C260.9,159.6,267.7,156.1,271.7,146.6z"/>
	<path class="st1" d="M118.7,78.2c9.4,6.1,17.4,5.4,25.2-2.3c-1.8,10.5,1.4,18.1,11.1,23.3c-10.8,1.4-16.8,6.9-18.1,18.2
		c-3.8-4.7-6-9.2-9.5-11.2c-3.4-1.9-8.3-1.3-13.4-2c2.6-3.9,6.2-7.2,7-11.1C121.7,89.1,119.7,84.5,118.7,78.2z"/>
	<path class="st1" d="M248.1,232.3c-4.4,4.2-8.4,6.5-10,9.9c-1.6,3.4-0.7,8-1,13.8c-7.2-7.5-14.9-8.5-23.9-3.4
		c4.6-9.4,2.5-16.7-4.9-23.6c10,0.8,16.8-2.6,20.9-12C231.6,226.7,236.9,232.2,248.1,232.3z"/>
	<path class="st1" d="M125.2,263.1c2.5,9.5,7.3,15.4,18,15.7c-8.4,5.5-12.3,12.3-9.9,22.5c-7.6-6.9-15.1-7.8-24.1-2.6
		c4.1-9.2,2.9-16.7-4.9-23.5C114,275.5,121.2,272.8,125.2,263.1z"/>
	<path class="st1" d="M169.4,76.7c-4.6-1.7-9-3.3-13.8-5.1c2.3-3.4,3.9-8.1-0.7-13.2c6,1.9,10.5,0.5,14.6-4.1
		c-0.1,6.2,2.7,9.8,9.9,11.7C172.6,68.6,168.5,71.5,169.4,76.7z"/>
	<path class="st1" d="M209.1,126.9c1.1-4.9,2.1-9.2,3.2-14c3.6,1.9,8.2,2.7,12.8-1.8c-0.6,5.8,0.8,10.4,6.2,13.4
		c-5.7,1-9.8,3.3-10.9,9.7C217.3,129.5,214,125.8,209.1,126.9z"/>
	<path class="st1" d="M278.8,53.9c4.8-3.6,8.3-6.9,6.2-13.4c4.8,3.9,9.4,4.7,14.9,1.6c-0.7,3.5-1.9,6-1.5,8.2
		c0.4,2.2,2.3,4.2,4.1,7.1c-6.4-1.4-10.2,1.4-13.2,7.5C287.6,58.6,285.7,53.9,278.8,53.9z"/>
	<path class="st1" d="M95.4,206.6c-2.7-3-5.5-6.1-8.3-9.2c1.9-3,4.2-6.7,6.5-10.5c3.3,0.8,7.5,1.9,11.7,2.9c0.3,3.7,0.7,8,1.1,11.8
		C102.9,203.3,99,205,95.4,206.6z"/>
	<path class="st1" d="M36.6,71.3c5.9,1.1,9.6-1,12.9-7.3c1,6.8,3.4,10.7,9.5,11.5c-4.4,3.1-8.1,6.1-6.7,12.5
		c-4.4-3.3-8.5-5.9-14.2-2.3C40.9,80.2,40.3,75.8,36.6,71.3z"/>
	<path class="st1" d="M87.9,256.9c-3.4,5.1-1.5,8.9,1.9,13.6c-6.1-1.5-10,0.2-13,5c-0.8-5.5-3.6-8.7-9.5-9.8
		c4.6-3.2,8.8-5.6,6.9-11.9C78.4,257.4,82.7,258.7,87.9,256.9z"/>
	<path class="st1" d="M204.5,265c-5.5-0.4-9.7,0.3-12.4,5.7c-1.2-5.4-3.6-8.9-9.3-10.1c4.5-2.7,7.5-5.9,6-12.6
		c4.8,4,8.6,6.7,13.9,3.4C200.9,256.6,200.2,261,204.5,265z"/>
	<path class="st1" d="M135.9,40.1c-3,1.8-6.4,3.7-10,5.8c-1.2-3.3-2.9-7.3-7.7-7c1.9-3.9,3.7-7.4,5.4-10.8c3,0.5,7,1.1,10.7,1.7
		C134.8,32.8,135.4,36.6,135.9,40.1z"/>
	<path class="st1" d="M259.3,275.7c-1.9,2.4-4.1,5.3-5.9,7.7c-2.8-1-6.1-2.2-9-3.3c0-3,0-6.5,0-9.7c2.9-0.9,6.2-1.9,9.6-2.9
		C255.4,269.8,257.4,272.8,259.3,275.7z"/>
	<path class="st1" d="M304.8,337c3-0.9,6.2-1.8,9.2-2.7c1.7,2.4,3.8,5.3,5.7,8c-1.8,2.2-4,4.9-6.2,7.7c-2.6-0.9-5.9-2.1-9.2-3.3
		C304.5,344,304.7,340.5,304.8,337z"/>
	<path class="st1" d="M64.9,98.8c1.7,2.7,3.5,5.5,5.2,8.2c-1.8,2-4.1,4.7-6.3,7.2c-2.6-1.1-5.8-2.3-9-3.6c0.3-2.8,0.7-6.3,1-9.5
		C58.8,100.4,62.1,99.6,64.9,98.8z"/>
	<path class="st1" d="M73,143.6c-1,2.7-2.1,5.9-3.2,9.1c-2.8-0.1-6.4-0.3-9.5-0.5c-1-3-2-6.2-2.9-9c2.6-1.8,5.6-3.8,8.1-5.5
		C67.9,139.7,70.6,141.8,73,143.6z"/>
	<path class="st1" d="M0,199.3c2.9-1.8,5.8-3.5,8.3-5c2.1,2,4.6,4.4,7.1,6.8c-1.1,2.4-2.6,5.6-4,8.6c-2.8-0.3-6.2-0.7-9.5-1.1
		C1.3,205.8,0.6,202.3,0,199.3z"/>
	<path class="st1" d="M43.9,27.8c2.1,2.2,4.1,4.4,6,6.6c-1.3,2.1-3,4.8-4.7,7.5c-2.3-0.5-5.3-1.3-8.4-2c-0.2-2.4-0.5-5.5-0.8-8.4
		C38.7,30.4,41.6,28.9,43.9,27.8z"/>
	<path class="st1" d="M263.1,330.9c0.1-2.5,0.3-5.3,0.4-8c2.2-0.6,4.8-1.3,7.6-2.1c1.2,1.8,2.7,4.1,4.3,6.5c-1.4,1.8-3.1,4-4.8,6.1
		C268.4,332.8,265.8,331.9,263.1,330.9z"/>
	<path class="st1" d="M350.1,88.8c-2.7,0.2-5.2,0.5-7.8,0.7c-1-2.2-2.1-4.7-3.2-7.1c1.9-1.7,4-3.5,6.1-5.3c2,1.2,4.2,2.7,6.7,4.2
		C351.3,83.5,350.7,86.2,350.1,88.8z"/>
	<path class="st1" d="M224.3,68c-1.7,2.2-3.3,4.4-4.7,6.3c-2.5-0.9-5.2-1.8-7.4-2.6c0-2.6,0-5.4,0-8c2.3-0.6,4.9-1.2,7.8-1.9
		C221.2,63.6,222.9,66,224.3,68z"/>
	<path class="st1" d="M164.1,293.9c1.3,2,2.8,4.3,4.3,6.6c-1.4,1.8-3.1,4-4.7,6.1c-2.4-0.8-5.1-1.7-7.6-2.5c0.2-2.3,0.4-4.9,0.6-7.9
		C158.6,295.7,161.2,294.8,164.1,293.9z"/>
	<path class="st1" d="M93.8,157.8c1.9-1.8,3.8-3.5,5.8-5.3c2,1.1,4.4,2.5,6.8,3.9c-0.5,2.5-1.1,5.3-1.7,7.7
		c-2.5,0.3-5.2,0.6-7.8,0.9C96,162.8,94.9,160.2,93.8,157.8z"/>
	<path class="st1" d="M181.5,124.1c-0.2,2.6-0.4,5.3-0.5,7.8c-2.4,0.5-5,1.1-7.7,1.7c-1.3-2-2.8-4.4-4.2-6.6c1.7-1.9,3.5-4,5.3-6.1
		C176.6,121.9,179,123,181.5,124.1z"/>
	<path class="st1" d="M156.9,6.5c-1.6,2.1-3.2,4.2-4.8,6.3c-2.1-0.8-4.7-1.8-7.3-2.8c0-2.2,0-4.9,0-7.6c2.3-0.7,5-1.6,7.6-2.4
		C153.8,2,155.4,4.3,156.9,6.5z"/>
	<path class="st1" d="M186.2,20.1c-2.6-0.9-5.1-1.8-7.3-2.6c0-2.6,0-5.3,0-7.9c2.3-0.7,5-1.5,7.6-2.2c1.3,2,2.8,4.2,4.4,6.6
		C189.6,15.8,187.9,18,186.2,20.1z"/>
	<path class="st1" d="M231.2,170.8c-1.7,2.1-3.3,4.2-5,6.4c-2.1-0.8-4.7-1.8-7.2-2.8c0-2.4,0-5.2,0-7.8c2.3-0.6,4.9-1.3,7.7-2
		C228,166.4,229.6,168.7,231.2,170.8z"/>
	<path class="st1" d="M201.2,111c0,2.5,0,5.2,0,7.8c-2.2,0.8-4.8,1.7-7.3,2.6c-1.6-2-3.3-4.2-5-6.2c1.5-2,3.1-4.3,4.7-6.5
		C195.9,109.4,198.5,110.2,201.2,111z"/>
	<path class="st1" d="M295.5,146.4c-1.5,1.9-3.1,4-4.7,6.1c-2.2-0.8-4.7-1.7-7.3-2.6c0-2.2,0-5.1,0-7.8c2.5-0.8,5.1-1.6,7.6-2.4
		C292.4,141.7,293.9,144,295.5,146.4z"/>
	<path class="st1" d="M263.2,260c-2.5-0.9-4.8-1.8-7.3-2.8c0-2.3,0-5.1,0-7.7c2.4-0.7,5-1.5,7.6-2.2c1.4,1.9,3,4.2,4.6,6.4
		C266.6,255.7,264.8,258,263.2,260z"/>
	<path class="st1" d="M79.1,78.7c2.4-0.6,5-1.2,7.7-1.9c1.3,1.8,2.8,4.1,4.4,6.3c-1.5,1.9-3.2,4.1-4.9,6.3c-2.2-0.8-4.7-1.8-7.2-2.8
		C79.1,84.3,79.1,81.5,79.1,78.7z"/>
	<path class="st1" d="M313.6,95.9c-2.4,0.5-5,1-7.5,1.5c-1.2-2.1-2.7-4.6-4-6.8c1.7-1.8,3.6-3.8,5.5-5.8c2.1,1,4.6,2.2,7.1,3.4
		C314.3,90.7,313.9,93.4,313.6,95.9z"/>
	<path class="st1" d="M82.1,176.3c-1.7,2.2-3.3,4.4-4.9,6.4c-2.2-0.8-4.7-1.7-7.3-2.7c0-2.2,0-5,0-7.7c2.4-0.8,5.1-1.6,7.6-2.4
		C79,171.9,80.6,174.2,82.1,176.3z"/>
	<path class="st1" d="M84,331.2c2.5-0.7,5-1.5,7.6-2.2c1.3,1.9,2.9,4.2,4.5,6.5c-1.5,1.8-3.2,4-4.9,6.1c-2.2-0.8-4.8-1.6-7.2-2.5
		C84,336.5,84,333.7,84,331.2z"/>
	<path class="st1" d="M294.1,246.3c0-2.6,0-5.3,0-7.8c2.4-0.7,5-1.4,7.7-2.2c1.2,1.8,2.8,4.1,4.4,6.4c-1.4,1.8-3.1,4.1-4.8,6.3
		C299.3,248.2,296.7,247.2,294.1,246.3z"/>
	<path class="st1" d="M71.7,49.1c2.3,1.3,4.5,2.7,6.8,4.1c-0.6,2.2-1.3,4.8-2.1,7.6c-2.2,0.2-5,0.5-7.6,0.7c-1-2.4-2-4.8-3.1-7.3
		C67.6,52.7,69.7,50.9,71.7,49.1z"/>
	<path class="st1" d="M242.3,82.5c1.5,2.1,3.1,4.3,4.6,6.3c-1.5,2-3.2,4.3-4.9,6.5c-2.2-0.9-4.6-1.9-7.2-3c0-2.3,0-5,0-7.7
		C237.2,83.9,239.8,83.2,242.3,82.5z"/>
	<path class="st1" d="M349.9,132.4c1.6,2.2,3.1,4.3,4.6,6.5c-1.4,1.8-3.1,4-4.8,6.2c-2.3-0.9-4.9-1.8-7.2-2.7c0-2.5,0-5.2,0-7.8
		C344.9,133.9,347.5,133.1,349.9,132.4z"/>
	<path class="st1" d="M189,140.2c2.5,0.8,4.9,1.7,7.5,2.5c0,2.1,0,4.8,0,7.6c-2.1,0.8-4.8,1.7-7.3,2.6c-1.5-2-3.2-4.3-4.7-6.4
		C185.9,144.6,187.6,142.3,189,140.2z"/>
	<path class="st1" d="M243.7,213.8c2.3-0.7,4.9-1.5,7.4-2.2c1.4,2.1,3,4.4,4.5,6.6c-1.5,1.9-3.1,4-4.9,6.2c-2.1-0.8-4.7-1.8-7.4-2.8
		C243.4,219.2,243.6,216.4,243.7,213.8z"/>
	<path class="st1" d="M347.3,284.7c1.3,2,2.8,4.2,4.3,6.4c-1.5,1.9-3.1,4.2-4.8,6.3c-2.2-0.9-4.7-1.9-7.2-2.9c0-2.2,0-5,0-7.7
		C342,286.2,344.6,285.5,347.3,284.7z"/>
	<path class="st1" d="M259.8,144.2c-2.7-0.9-5.2-1.8-7.3-2.6c0-2.6,0-5.3,0-7.8c2.5-0.8,5-1.5,7.5-2.3c1.4,2,2.9,4.2,4.5,6.5
		C263.1,139.8,261.4,142.1,259.8,144.2z"/>
	<path class="st1" d="M144.6,129.8c1.9-0.4,3.7-0.8,5.6-1.1c0.9,1.6,1.8,3.3,2.4,4.5c-1.5,1.1-3.1,2.3-4.6,3.4
		c0.4,0.4,0.8,0.8,1.2,1.2c-1.7-0.8-3.4-1.6-5.2-2.4C144.1,133.6,144.3,131.6,144.6,129.8z"/>
	<path class="st1" d="M173.5,114.2c-1.4,1.2-2.8,2.5-4.3,3.8c-1.4-0.9-3-1.9-4.6-2.9c0.3-1.7,0.7-3.6,1-5.5c1.8-0.1,3.6-0.2,5.5-0.4
		C171.8,110.9,172.7,112.6,173.5,114.2z"/>
	<path class="st1" d="M46.8,102.7c0.9,1.5,1.8,3.1,2.4,4.1c-1.5,1.3-3,2.6-4.6,4c0.4,0.3,0.7,0.6,1.1,0.9c-1.6-0.8-3.2-1.5-4.9-2.4
		c0.2-1.6,0.4-3.5,0.7-5.4C43.2,103.5,45,103.1,46.8,102.7z"/>
	<path class="st1" d="M81,112.8c-1.3,0.9-2.7,1.8-4.1,2.8c-1.2-1.1-2.5-2.2-3.7-3.4c0.7-1.5,1.4-3,2-4.4c1.5,0.2,3,0.3,4.7,0.5
		C80.1,109.6,80.5,111.2,81,112.8z"/>
	<path class="st1" d="M84.1,135c2.1,3.1,4,5.9,5.8,8.6c-0.3,0.2-0.6,0.5-0.9,0.7c-2.9-1.3-5.9-2.7-9.3-4.2
		C81.4,138.1,82.5,136.9,84.1,135z"/>
	<path class="st1" d="M279.6,279.1c1.6,2.4,2.3,3.4,3,4.6c-0.9,1-1.9,2.1-3,3.3c-1.2-0.5-2.4-1.1-4.7-2.2
		C276.5,282.8,277.9,281.1,279.6,279.1z"/>
	<path class="st1" d="M284.8,228.9c1.2,2.2,1.8,3.4,2.6,4.7c-0.8,0.9-1.7,2-2.7,3.3c-1.2-0.5-2.5-1.1-5-2.2
		C281.4,232.6,283,230.9,284.8,228.9z"/>
	<path class="st1" d="M101.9,41.2c-2.2-1.4-5.9-1.6-2.5-6c0.4-0.1,1.7-0.5,3.2-0.9c0.7,1.1,1.4,2.2,2.3,3.5
		C104,38.8,102.9,40,101.9,41.2z"/>
	<path class="st1" d="M346.2,46.4c-2.5,1.6-3.5,2.3-4.8,3.1c-0.9-0.8-2-1.7-3.3-2.7c0.5-1.2,0.9-2.5,1.8-4.9
		C341.9,43.4,343.7,44.7,346.2,46.4z"/>
	<path class="st1" d="M319.9,116.1c1,1.9,1.4,2.8,1.9,3.6c0.2,0.3,0.5,0.4,0.9,0.9c-1,1.1-1.9,2.2-3,3.5c-1.2-0.5-2.4-1.1-4.9-2.1
		C316.6,119.8,318.1,118.2,319.9,116.1z"/>
	<path class="st1" d="M52.9,138.6c-1.7,1.8-2.6,2.9-4.4,4.9c-1.4-2.3-2.5-4.3-3.7-6.2c0.5-0.5,1-1.1,1.5-1.6
		C48.4,136.6,50.5,137.5,52.9,138.6z"/>
	<path class="st1" d="M223.8,105.6c-2.5-1.1-3.7-1.6-6-2.6c1.7-2,3.2-3.7,4.7-5.4c0.7,0.3,1.3,0.5,2,0.8
		C224.3,100.6,224.1,102.9,223.8,105.6z"/>
	<path class="st1" d="M367.7,121.2c-2,2.2-2.9,3.1-3.8,4.1c-1.2-0.6-2.3-1.2-3.7-1.9c0.1-1.2,0.3-2.6,0.6-5.2
		C363.2,119.3,365.2,120.2,367.7,121.2z"/>
	<path class="st1" d="M304,328.3c-1,1.1-2,2.1-3.8,4c-1.3-2.4-2.4-4.3-3.6-6.6c2.3-0.5,3.5-0.8,5.1-1.1
		C302.4,325.7,303.2,327,304,328.3z"/>
	<path class="st1" d="M323.3,250.6c-1-0.5-2.2-1.1-3.6-1.7c0.2-1.3,0.4-2.7,0.6-4.2c1.3-0.3,2.6-0.5,4-0.8c0.7,1.2,1.5,2.4,2.3,3.8
		C325.6,248.6,324.5,249.6,323.3,250.6z"/>
	<path class="st1" d="M280.6,21.5c-1.3-1.1-2.2-2-3.3-3c0.6-1.1,1.2-2.3,1.9-3.6c1.4,0.2,2.8,0.4,4.2,0.6c0.2,1.4,0.4,2.8,0.6,4.2
		C282.8,20.4,281.6,21,280.6,21.5z"/>
	<path class="st1" d="M278.3,254.5c2.1,1,4.1,2.1,6.5,3.2c-1.6,1.7-2.5,2.7-4.2,4.5c-1.4-2.1-2.7-4-4-6
		C277.2,255.7,277.7,255.1,278.3,254.5z"/>
	<path class="st1" d="M311.4,82.1c-1.4-2.7-2.4-4.6-3.7-6.9c2.3-0.5,3.7-0.8,5.2-1.1c0.6,1.1,1.3,2.2,2.1,3.5
		C314.3,78.6,313.4,79.7,311.4,82.1z"/>
	<path class="st1" d="M61.3,82.1c3-0.6,4.2-0.9,5.5-1.2c0.7,1.3,1.4,2.5,2.2,3.8c-0.9,0.9-1.8,1.9-3.5,3.7
		C64,86.3,62.8,84.4,61.3,82.1z"/>
	<path class="st1" d="M104.3,126.5c-1.2,0.8-2.4,1.6-3.6,2.3c-1-0.9-2-1.7-3.2-2.8c0.5-1.2,1-2.5,1.6-3.8c1.5,0,2.9,0,4.4,0
		C103.8,123.7,104.1,125.1,104.3,126.5z"/>
	<path class="st1" d="M78.4,127.5c2.5-1.4,3.6-2.1,4.9-2.8c1,0.9,2.1,1.8,3.3,2.7c-0.5,1.3-1.1,2.6-2.1,5
		C82.5,130.8,80.7,129.4,78.4,127.5z"/>
	<path class="st1" d="M173.9,146.1c1.5-1.5,3.1-3,4.8-4.7c1.3,1.9,2,3,3.4,5.1c-2.5,0.7-4.7,1.4-7,2
		C174.7,147.7,174.3,146.9,173.9,146.1z"/>
	<path class="st1" d="M270.5,217.7c2-2.1,3.5-3.7,5.3-5.6c1.2,2.1,1.9,3.2,2.7,4.5c-0.7,0.8-1.5,1.8-2.6,3.1
		C274.6,219.2,273.1,218.7,270.5,217.7z"/>
	<path class="st1" d="M116.7,163.6c-0.3-2.5-0.5-3.8-0.6-5.2c1.2-0.7,2.5-1.4,3.5-1.9c1.2,1,2.3,2,4.2,3.7
		C121.2,161.4,119.2,162.4,116.7,163.6z"/>
	<path class="st1" d="M87.1,306.4c-1.3-2.4-2.3-4.5-3.3-6.5c0.5-0.5,0.9-1,1.4-1.5c2,0.9,4.1,1.8,6.5,2.9
		C89.9,303.3,88.8,304.4,87.1,306.4z"/>
	<path class="st1" d="M212.8,182.9c-2.7-1.2-4-1.8-5.3-2.5c0.2-1.3,0.4-2.5,0.7-4.1c1.1-0.3,2.5-0.7,5-1.3
		C213.1,177.7,213,179.9,212.8,182.9z"/>
	<path class="st1" d="M107.4,82.8c2.5-0.5,3.9-0.8,5.3-1c0.7,1.3,1.4,2.5,2,3.7c-1,1-2.1,2.1-3.8,3.8
		C109.7,87.1,108.7,85.1,107.4,82.8z"/>
	<path class="st1" d="M246.4,74.7c2.4-0.6,3.6-0.9,5.1-1.2c0.7,1.2,1.5,2.5,2.3,3.8c-1.1,1.2-2.1,2.2-3.8,4
		C248.7,79,247.7,76.9,246.4,74.7z"/>
	<path class="st1" d="M157.8,46.7c-0.9,1-1.8,1.9-3.6,3.8c-1.3-2.2-2.5-4.1-3.8-6.4c2.6-0.6,4-0.9,5.4-1.3
		C156.4,44.2,157.1,45.4,157.8,46.7z"/>
	<path class="st1" d="M140,239.2c-1,1-1.9,2-2.9,3c-1.2-0.6-2.5-1.1-3.8-1.7c0.1-1.3,0.2-2.6,0.4-4.1c1.3-0.3,2.6-0.6,4.1-0.9
		C138.5,236.8,139.3,238,140,239.2z"/>
	<path class="st1" d="M270.5,32.9c2.3-1.3,4.4-2.3,6.4-3.4c0.5,0.5,1,0.9,1.6,1.4c-1,2.1-2,4.2-3.2,6.6
		C273.3,35.6,272.3,34.6,270.5,32.9z"/>
	<path class="st1" d="M156.1,254c0.7,1.1,1.4,2.2,2.2,3.5c-0.9,1-1.8,2.1-2.8,3.3c-1.3-0.6-2.6-1.2-4-1.8c0.2-1.5,0.4-2.9,0.6-4.3
		C153.4,254.4,154.7,254.2,156.1,254z"/>
	<path class="st1" d="M393.1,275.4c-1.4-2.3-2.5-4.2-3.6-6.1c0.4-0.6,0.9-1.1,1.3-1.7c2.2,0.9,4.3,1.7,6.9,2.7
		C395.9,272.3,394.9,273.4,393.1,275.4z"/>
	<path class="st1" d="M169.9,99.4c-1.8,2-2.8,3-4.5,4.9c-1.3-2.2-2.5-4.2-3.6-6.1c0.4-0.5,0.9-1.1,1.3-1.6
		C165.2,97.4,167.3,98.3,169.9,99.4z"/>
	<path class="st1" d="M193.2,230.9c3-0.5,4.3-0.7,5.4-0.9c0.8,1.3,1.5,2.5,2.2,3.7c-1.3,0.7-2.4,1.4-4.4,2.4
		C195.9,235.2,194.8,233.3,193.2,230.9z"/>
	<path class="st1" d="M7.3,25.8c0.7-2.7,1.1-4,1.8-6.5c2.2,1.5,4.1,2.8,6,4c-0.2,0.7-0.3,1.4-0.5,2.1C12.3,25.6,10,25.7,7.3,25.8z"
		/>
	<path class="st1" d="M124.8,141.3c0.3,1.4,0.5,2.7,0.7,4c-1.2,0.6-2.3,1.2-3.6,1.9c-1-0.9-2.1-1.9-3.2-2.9c0.6-1.3,1.3-2.6,1.9-3.9
		C122.1,140.7,123.5,141,124.8,141.3z"/>
	<path class="st1" d="M294.7,126.3c2.5,1.1,4.5,2,7.1,3.2c-1.8,1.9-2.7,2.9-3.8,4.1c-1.2-0.6-2.5-1.3-3.8-1.9
		C294.3,130.2,294.5,128.8,294.7,126.3z"/>
	<path class="st1" d="M206,104.4c-1.4-2.4-2.5-4.3-3.8-6.5c2.5-0.6,3.9-1,5.3-1.4c0.7,1.2,1.4,2.5,2.2,3.7
		C208.7,101.3,207.8,102.3,206,104.4z"/>
	<path class="st1" d="M173.3,276.8c1.5,2.7,2.1,3.8,3.2,5.8c-2.3,0.7-4.4,1.3-6.4,1.8c-0.4-0.6-0.9-1.2-1.3-1.9
		C170.2,280.9,171.5,279.2,173.3,276.8z"/>
	<path class="st1" d="M290.1,187.9c-1.1,1.2-2,2.1-3,3.1c-1.2-0.5-2.3-1-3.7-1.6c0.1-1.3,0.2-2.7,0.3-4.2c1.4-0.3,2.8-0.6,4.1-0.9
		C288.6,185.5,289.3,186.6,290.1,187.9z"/>
	<path class="st1" d="M131.1,163.1c1.6,2,3.1,3.1,3,3.9c-0.2,1.2-1.5,2.1-2.4,3.2c-0.9-1-2.1-2-2.5-3.2
		C129,166.3,130,165.1,131.1,163.1z"/>
	<path class="st1" d="M218.4,208c-2.2,1.5-3.4,2.8-4.2,2.7c-1.1-0.2-1.9-1.7-2.8-2.6c0.9-0.8,1.7-2.2,2.7-2.3
		C215.1,205.6,216.2,206.8,218.4,208z"/>
	<path class="st1" d="M225.2,149.3c0-1.7,0-3.3,0-5c1.3,0.1,2.6,0.2,3.9,0.3c-0.5,1.7-1,3.3-1.5,5
		C226.9,149.5,226.1,149.4,225.2,149.3z"/>
	<path class="st1" d="M197.8,153.4c1.6,2,3.1,3,3,3.9c-0.1,1-1.5,1.9-2.3,2.9c-0.9-0.8-2.4-1.5-2.6-2.4
		C195.7,156.8,196.7,155.6,197.8,153.4z"/>
	<path class="st1" d="M26.5,192.1c-2.1,1.5-3.3,3-4.1,2.8c-1.1-0.2-2-1.6-2.9-2.5c0.9-0.9,1.7-2.2,2.7-2.4
		C23.1,189.7,24.3,190.9,26.5,192.1z"/>
</g>
</svg>
