<?xml version="1.0" encoding="utf-8"?>
<!-- Generator: Adobe Illustrator 23.0.3, SVG Export Plug-In . SVG Version: 6.00 Build 0)  -->
<svg version="1.1" id="Layer_1" xmlns="http://www.w3.org/2000/svg" xmlns:xlink="http://www.w3.org/1999/xlink" x="0px" y="0px"
	 viewBox="0 0 461.7 391.3" style="enable-background:new 0 0 461.7 391.3;" xml:space="preserve">
<style type="text/css">
	.st0{opacity:0.25;}
	.st1{fill:#FFFFFF;}
</style>
<g class="st0">
	<path class="st1" d="M205,248.6c0.8-4.6,1.7-9.8,2.8-15c1-4.6-0.5-8.1-3.9-11.1c-3.1-2.8-6.1-5.7-9-8.6c-0.9-0.9-1.4-2.1-2-3.2
		c1.2-0.7,2.4-1.7,3.7-2c4.1-0.8,8.2-1.5,12.3-2c4.6-0.5,7.6-2.8,9.5-7c1.6-3.7,3.3-7.3,5.1-10.8c0.7-1.4,1.7-2.6,3.3-5
		c3,5.6,5.8,10,7.8,14.8c2.1,5,5.7,7,10.7,7.5c5.2,0.5,10.3,1.3,15.5,2c0.2,0.6,0.4,1.2,0.5,1.8c-3,3.1-5.8,6.6-9.1,9.4
		c-5.5,4.6-7.4,9.8-5.3,16.8c1.2,4.2,1.6,8.7,2.5,13.6c-9.7-0.6-16-10.4-25.7-7.8c-0.9,6.1,2.9,8.3,6.6,9.6
		c-2.1,3.9-4.2,7.5-6.5,11.6c-2.7-2.6-6.7-4.8-11.6-1.4c0.2-3.7,1.3-6.9,0.3-9.2C211.9,250.8,208.5,250.2,205,248.6z"/>
	<path class="st1" d="M248.2,98.5c5.5-11.5,2-20.2-8-27.6c12.5,0.3,20.3-4.5,22.9-16.8c0.5,0.2,0.9,0.5,1.4,0.7
		c2.5,4.3,4.1,9.8,7.7,12.5c3.8,2.8,9.6,2.9,15.2,4.3c-3.6,4-8.4,7.3-9.8,11.6c-1.5,4.5,0.2,10,0.6,15.8c-5-2.2-9.6-5.7-14.2-5.8
		c-4.7-0.1-9.4,3.3-14.1,5.2C249.4,98.6,248.8,98.6,248.2,98.5z"/>
	<path class="st1" d="M286.7,124.8c7.7,6.1,15.2,8.1,24.1,1.9c-3.7,9.4-2.4,16.9,5.3,23.7c-9.6-0.1-17.2,2.1-19.4,12.7
		c1.6,0.8,3.6,1.8,6.5,3.2c-4.5,2.7-7.7,5.8-6.7,11.6c-4.1-3.3-8.1-5.1-13.9-1.7c2.1-5.8,3.6-10.3-2.2-14.3c2.6-0.2,3.7-0.5,4.8-0.3
		c3.6,0.6,6.4-1.2,6.9-4.3c0.6-3.4-1.4-6.5-5.1-7.6c-3-0.9-6-1.6-9.7-3.2C285.7,141.7,289.1,134.9,286.7,124.8z"/>
	<path class="st1" d="M123.1,161.4c11.2-0.7,17.2-6.1,18.9-16.9c4.9,9.5,12,13.7,22.8,12.1c-7.8,7.6-9.3,15.6-3.7,25.4
		c-5.9-1.5-10.3-3.8-14.3-3.3c-3.9,0.5-7.5,3.9-12,6.4c-0.3-4.7,0.7-9.5-1-13.1C132,168.3,127.7,165.8,123.1,161.4z"/>
	<path class="st1" d="M318.9,207.7c-1,6-2.9,10.2-2.1,13.9c0.8,3.7,4.2,6.9,7.4,11.7c-10.3-1.7-17.1,2.1-21.2,11.6
		c-1.9-10.2-8-14.9-18-16c8.5-5.3,11.9-12.1,9.6-22.1C302.3,213.1,309.9,214.3,318.9,207.7z"/>
	<path class="st1" d="M238.7,305.8c7.7,6.1,15.1,8,23.8,1.8c-3.4,9.5-2.5,17.2,5.5,23.9c-10.2-1-16.8,2.8-20.8,12.3
		c-2.2-9.8-7.7-15.1-18-15.9C237.1,322.4,241.3,315.9,238.7,305.8z"/>
	<path class="st1" d="M162.9,129.8c-4.7,1.4-9.2,2.7-14.1,4.2c-0.2-4.1-1.7-8.8-8.4-10.1c6-2,8.7-5.9,9.3-12c3.6,5,8,6.3,14.9,3.5
		C160.6,121.5,159,126.2,162.9,129.8z"/>
	<path class="st1" d="M224.7,146.5c-2-4.6-3.8-8.6-5.8-13.1c4-0.6,8.2-2.7,9.2-9.1c3,5,6.9,7.8,13,7.1c-3.9,4.2-5.9,8.5-3,14.3
		C232.8,143.6,227.9,142.6,224.7,146.5z"/>
	<path class="st1" d="M237,46.3c1.7-5.8,2.5-10.5-3.1-14.4c6.1,0.3,10.4-1.8,12.9-7.6c1.5,3.2,2.1,5.9,3.7,7.4
		c1.6,1.6,4.4,2,7.6,3.3c-6,2.7-7.4,7.2-6.1,13.9C246.9,44.8,242.6,42.1,237,46.3z"/>
	<path class="st1" d="M181.1,278.2c-3.9-0.8-8.1-1.6-12.1-2.4c-0.3-3.6-0.7-7.9-1.1-12.3c3.1-1.3,7.2-3,11.2-4.7
		c2.4,2.7,5.4,6,7.9,8.8C185.1,271.1,183,274.8,181.1,278.2z"/>
	<path class="st1" d="M53.1,204.8c5.4-2.6,7.1-6.5,6-13.5c4.9,4.9,9.1,6.5,14.5,3.5c-1.7,5.1-2.8,9.8,2.1,14
		c-5.5-0.1-10.4,0.4-12.8,6.6C61.9,209.3,58.7,206.2,53.1,204.8z"/>
	<path class="st1" d="M205.1,323.1c0.3,6.1,4.1,8,9.6,9.8c-5.8,2.4-7.9,6.2-7.5,11.8c-3.9-3.9-8.1-4.8-13.5-2.2
		c1.8-5.3,3.7-9.8-1.6-13.7C197.8,329.1,201.9,327.6,205.1,323.1z"/>
	<path class="st1" d="M303.5,259.9c-4.6,2.9-7.6,6-6.5,12c-4.1-3.6-8.2-5-13.5-2.6c2-4.9,2.5-9.2-2.7-13.7
		c6.2,0.3,10.9,0.3,13.2-5.6C295.5,255.4,297.6,259.3,303.5,259.9z"/>
	<path class="st1" d="M114.2,120.4c-1.4,3.2-2.9,6.8-4.6,10.7c-2.9-2-6.7-4.2-10.4-1.1c-0.8-4.3-1.5-8.2-2.1-11.9
		c2.7-1.4,6.3-3.3,9.6-5C108.9,115.3,111.7,118,114.2,120.4z"/>
	<path class="st1" d="M353.8,235.8c-0.1,3.1-0.1,6.7-0.2,9.7c-2.9,0.9-6.2,1.9-9.2,2.8c-1.8-2.4-3.9-5.2-5.8-7.8
		c1.8-2.4,3.9-5.2,5.9-8C347.2,233.4,350.5,234.6,353.8,235.8z"/>
	<path class="st1" d="M427,257.8c1.9-2.5,3.9-5.2,5.8-7.6c2.8,0.9,6.2,2,9.4,3c-0.1,2.8-0.3,6.3-0.4,9.9c-2.6,0.8-6,1.9-9.4,2.9
		C430.8,263.6,428.9,260.7,427,257.8z"/>
	<path class="st1" d="M92.3,210c3,1.2,6.1,2.3,9.1,3.5c-0.2,2.7-0.5,6.2-0.7,9.6c-2.7,0.7-6,1.6-9.4,2.5c-1.4-2.4-3.2-5.4-4.9-8.2
		C88.3,214.9,90.4,212.3,92.3,210z"/>
	<path class="st1" d="M125.5,241.1c0.8,2.8,1.8,6,2.8,9.2c-2.3,1.6-5.3,3.5-7.9,5.3c-2.5-1.8-5.3-3.8-7.7-5.5c1-3,2.2-6.4,3.2-9.2
		C119,241,122.5,241,125.5,241.1z"/>
	<path class="st1" d="M100.2,329.3c1.3-3.2,2.6-6.3,3.6-9c2.9,0.4,6.3,0.8,9.8,1.2c0.5,2.6,1.3,6.1,1.9,9.3
		c-2.4,1.4-5.4,3.1-8.3,4.8C105.1,333.7,102.4,331.4,100.2,329.3z"/>
	<path class="st1" d="M33.1,165.6c3,0.6,5.9,1.1,8.8,1.7c0.2,2.5,0.5,5.6,0.7,8.8c-2.2,0.9-5,2.1-7.9,3.4c-1.6-1.8-3.7-4.1-5.6-6.2
		C30.3,170.7,31.9,167.8,33.1,165.6z"/>
	<path class="st1" d="M389.8,277.8c-1.4-2.1-2.9-4.4-4.4-6.6c1.4-1.8,3.1-3.9,4.8-6.2c2,0.7,4.6,1.7,7.4,2.6c0,2.3-0.1,5.1-0.2,7.8
		C395.2,276.1,392.6,277,389.8,277.8z"/>
	<path class="st1" d="M315.1,31.6c-2,1.8-3.9,3.5-5.9,5.2c-2.1-1.2-4.5-2.5-6.8-3.7c0.5-2.5,1.1-5.2,1.7-7.9c2.3-0.2,5-0.4,7.8-0.6
		C312.9,26.6,314,29.2,315.1,31.6z"/>
	<path class="st1" d="M201.7,90.1c0,2.8,0,5.5,0,7.9c-2.5,0.8-5.2,1.6-7.5,2.3c-1.6-2.1-3.3-4.4-4.8-6.4c1.5-1.8,3.2-3.9,5.1-6.2
		C196.6,88.4,199.4,89.3,201.7,90.1z"/>
	<path class="st1" d="M288.3,307.3c2.3,0.8,4.8,1.8,7.4,2.7c0,2.2-0.1,5-0.2,7.7c-2.4,0.8-5.1,1.7-7.6,2.6c-1.2-1.9-2.6-4.2-4.2-6.7
		C284.9,311.9,286.6,309.7,288.3,307.3z"/>
	<path class="st1" d="M150.6,240.1c0.5-2.6,1-5.1,1.5-7.7c2.3-0.3,5-0.6,7.8-1c1.1,2.3,2.2,4.9,3.3,7.2c-1.8,1.7-3.8,3.6-5.7,5.4
		C155.4,242.7,153,241.4,150.6,240.1z"/>
	<path class="st1" d="M200.9,160.6c1.4,2.2,2.9,4.5,4.2,6.6c-1.6,1.9-3.4,3.9-5.2,5.9c-2.2-0.8-4.8-1.8-7.3-2.8
		c0.2-2.5,0.4-5.3,0.6-8C195.6,161.8,198.2,161.2,200.9,160.6z"/>
	<path class="st1" d="M110.9,81c0,2.6,0,5.3-0.1,7.9c-2.2,0.6-4.8,1.4-7.5,2.1c-1.3-1.8-2.9-3.9-4.5-6.1c1.4-2,3-4.3,4.6-6.5
		C105.7,79.2,108.4,80.1,110.9,81z"/>
	<path class="st1" d="M142.6,74.4c-2.6,0.8-5.2,1.6-7.4,2.3c-1.5-2.1-3.1-4.2-4.7-6.3c1.5-1.9,3.2-4.2,4.8-6.3
		c2.3,0.8,4.8,1.7,7.5,2.6C142.7,68.9,142.6,71.7,142.6,74.4z"/>
	<path class="st1" d="M268.6,168.5c-0.1,2.7-0.1,5.4-0.2,8.1c-2.2,0.6-4.9,1.3-7.4,2c-1.5-1.9-3.1-4.2-4.7-6.3c1.5-1.9,3.2-4,5-6.2
		C263.4,166.8,266.1,167.7,268.6,168.5z"/>
	<path class="st1" d="M208.9,138.4c1.5,2,3.1,4.2,4.6,6.2c-1.3,1.9-2.8,4.3-4.3,6.4c-2.5-0.6-5.2-1.4-7.7-2c0-2.5-0.1-5.3-0.1-8
		C203.7,140.2,206.2,139.4,208.9,138.4z"/>
	<path class="st1" d="M305.6,110.5c0,2.4-0.1,5.1-0.1,7.7c-2.3,0.7-4.8,1.5-7.4,2.3c-1.3-1.8-3-4.1-4.6-6.2c1.5-2.1,3.1-4.4,4.7-6.5
		C300.4,108.5,302.9,109.5,305.6,110.5z"/>
	<path class="st1" d="M347.6,220.9c-2.5,0.7-5,1.4-7.5,2.1c-1.4-1.8-3-4.1-4.6-6.2c1.5-2,3.1-4.2,4.7-6.3c2.3,0.7,4.9,1.6,7.5,2.4
		C347.7,215.4,347.6,218.3,347.6,220.9z"/>
	<path class="st1" d="M91.6,185.4c1.6-1.9,3.3-4,5-6.1c2.1,0.7,4.7,1.6,7.3,2.5c0,2.4-0.1,5.2-0.1,7.9c-2.2,0.6-4.8,1.3-7.4,2.1
		C95,189.8,93.3,187.6,91.6,185.4z"/>
	<path class="st1" d="M290,59.2c-1.7,1.8-3.5,3.8-5.2,5.7c-2.3-1-4.9-2.1-7.2-3.1c0.3-2.4,0.6-5.2,0.9-7.9c2.3-0.5,5.1-1,7.7-1.5
		C287.4,54.5,288.8,57,290,59.2z"/>
	<path class="st1" d="M152.3,261.8c0,2.8-0.1,5.5-0.1,8c-2.2,0.7-4.8,1.4-7.5,2.2c-1.3-1.7-3-4-4.6-6.2c1.5-2.1,3.1-4.4,4.6-6.5
		C147.2,260.2,149.9,261,152.3,261.8z"/>
	<path class="st1" d="M246.3,385c1.5-2,3.2-4.2,4.8-6.3c2.2,0.7,4.9,1.6,7.5,2.5c-0.1,2.3-0.2,5.1-0.3,7.9c-2.3,0.7-4.8,1.5-7.3,2.3
		C249.5,389.3,247.8,387,246.3,385z"/>
	<path class="st1" d="M364.2,191.4c-1.6-2.1-3.2-4.2-4.7-6.2c1.5-2,3.1-4.1,4.9-6.4c2.1,0.7,4.7,1.6,7.3,2.5c0,2.3-0.1,5.1-0.1,7.9
		C369.4,189.8,366.8,190.6,364.2,191.4z"/>
	<path class="st1" d="M68,166c2.6-0.3,5.3-0.5,7.9-0.8c0.8,2.2,1.8,4.6,2.9,7.3c-1.6,1.5-3.7,3.4-5.6,5.1c-2.2-1.3-4.5-2.7-6.8-4
		C66.9,171.4,67.5,168.6,68,166z"/>
	<path class="st1" d="M224.8,91c2.5,0.8,5.1,1.6,7.4,2.3c0,2.6,0,5.4-0.1,8.1c-2.3,0.6-4.9,1.2-7.6,1.9c-1.4-1.8-3-4-4.6-6.1
		C221.6,95.2,223.2,93.1,224.8,91z"/>
	<path class="st1" d="M341,66.7c2.6,0.8,5,1.6,7.6,2.4c0,2.3-0.1,5.1-0.2,7.9c-2.4,0.7-5.1,1.5-7.4,2.2c-1.5-2-3.1-4.2-4.6-6.2
		C337.8,70.9,339.5,68.8,341,66.7z"/>
	<path class="st1" d="M216.6,169.1c2.5-0.8,4.9-1.6,7.5-2.5c1.3,1.7,2.9,3.8,4.6,6.1c-1.3,1.9-2.8,4.2-4.3,6.5
		c-2.4-0.7-5.1-1.5-7.6-2.3C216.7,174.5,216.6,171.6,216.6,169.1z"/>
	<path class="st1" d="M304.3,195.4c1.5-2,3-4.1,4.6-6.2c2.4,0.8,5,1.7,7.5,2.6c-0.1,2.4-0.1,5.1-0.2,7.9c-2.1,0.6-4.8,1.4-7.6,2.2
		C307.4,200,305.8,197.6,304.3,195.4z"/>
	<path class="st1" d="M429.8,190.5c2.2,0.8,4.8,1.7,7.3,2.5c0,2.4,0,5.2,0,7.9c-2.3,0.6-4.9,1.3-7.5,2c-1.3-1.8-3-4-4.6-6.2
		C426.4,194.8,428,192.7,429.8,190.5z"/>
	<path class="st1" d="M275.7,130c-2.7,0.8-5.3,1.6-7.4,2.3c-1.6-2.1-3.2-4.2-4.6-6.2c1.5-2.1,3.1-4.2,4.7-6.3
		c2.3,0.8,4.9,1.7,7.5,2.6C275.7,124.5,275.7,127.4,275.7,130z"/>
	<path class="st1" d="M174.6,187.2c1.3-1.4,2.5-2.8,3.8-4.2c1.7,0.8,3.4,1.6,4.6,2.1c-0.5,1.8-1.1,3.6-1.7,5.5
		c0.5,0.1,1.1,0.2,1.6,0.2c-1.8,0.4-3.7,0.8-5.6,1.2C176.5,190.6,175.5,188.8,174.6,187.2z"/>
	<path class="st1" d="M188.5,157.5c-0.4,1.8-0.8,3.7-1.2,5.6c-1.6,0.1-3.5,0.3-5.5,0.4c-0.8-1.6-1.6-3.3-2.5-5
		c1.3-1.1,2.7-2.4,4.2-3.6C185.2,155.8,186.9,156.7,188.5,157.5z"/>
	<path class="st1" d="M80,223.9c1.6,0.7,3.3,1.4,4.3,1.8c-0.4,1.9-0.9,3.9-1.3,5.9c0.5,0,0.9,0,1.4,0c-1.7,0.3-3.5,0.7-5.3,1
		c-0.8-1.4-1.8-3.1-2.7-4.7C77.6,226.7,78.8,225.3,80,223.9z"/>
	<path class="st1" d="M113.5,211.6c-0.5,1.5-1.1,3-1.6,4.7c-1.6-0.2-3.3-0.3-5-0.5c-0.4-1.6-0.7-3.2-1-4.8c1.3-0.8,2.6-1.5,4-2.4
		C110.9,209.6,112.2,210.6,113.5,211.6z"/>
	<path class="st1" d="M129.3,227.5c3.6,1.2,6.7,2.3,9.8,3.4c-0.1,0.4-0.2,0.7-0.3,1.1c-3.1,0.7-6.3,1.4-10,2.2
		C129,231.6,129.1,230.1,129.3,227.5z"/>
	<path class="st1" d="M372.1,226.4c2.7,1,3.9,1.4,5.2,1.9c-0.2,1.4-0.3,2.8-0.5,4.4c-1.3,0.3-2.6,0.5-5.1,1.1
		C371.8,231.2,372,229.1,372.1,226.4z"/>
	<path class="st1" d="M346.3,183c2.3,1.1,3.5,1.6,4.8,2.2c-0.1,1.2-0.1,2.6-0.2,4.2c-1.3,0.3-2.6,0.6-5.3,1.2
		C345.8,188.1,346,185.8,346.3,183z"/>
	<path class="st1" d="M87.5,141.6c-2.5,0.2-5.7,2.3-5.6-3.3c0.2-0.3,1.1-1.4,2-2.6c1.2,0.5,2.4,0.9,3.9,1.5
		C87.8,138.5,87.7,140.1,87.5,141.6z"/>
	<path class="st1" d="M286.6,0c-1,2.8-1.5,3.9-2,5.4c-1.2-0.1-2.6-0.1-4.2-0.2c-0.4-1.3-0.8-2.6-1.5-5C281.4,0.1,283.6,0.1,286.6,0z
		"/>
	<path class="st1" d="M307.1,71.6c2,0.9,2.8,1.4,3.7,1.7c0.3,0.1,0.7,0.1,1.3,0.1c-0.1,1.5-0.2,2.9-0.3,4.6
		c-1.2,0.3-2.6,0.6-5.2,1.2C306.7,76.5,306.9,74.3,307.1,71.6z"/>
	<path class="st1" d="M106.4,249c-0.2,2.5-0.4,3.9-0.6,6.6c-2.5-1-4.6-1.9-6.7-2.8c0.1-0.7,0.2-1.4,0.2-2.2
		C101.6,250.1,103.9,249.6,106.4,249z"/>
	<path class="st1" d="M223.8,120.5c-2.6,0.6-4,0.9-6.4,1.5c0.2-2.6,0.4-4.9,0.5-7.1c0.7-0.2,1.4-0.4,2.1-0.6
		C221.2,116.2,222.4,118.2,223.8,120.5z"/>
	<path class="st1" d="M348.5,47.2c-0.3,3-0.5,4.3-0.6,5.5c-1.3,0.2-2.5,0.5-4.1,0.7c-0.6-1-1.3-2.2-2.7-4.5
		C343.8,48.3,345.9,47.8,348.5,47.2z"/>
	<path class="st1" d="M421.1,251.3c-0.2,1.5-0.4,2.9-0.7,5.4c-2.5-1.1-4.5-2-6.9-3.1c1.5-1.7,2.3-2.7,3.4-4
		C418.2,250.1,419.7,250.7,421.1,251.3z"/>
	<path class="st1" d="M390.2,177.4c-1.1,0.2-2.4,0.5-3.9,0.8c-0.6-1.2-1.3-2.4-2-3.7c0.9-1,1.7-2,2.7-3c1.3,0.5,2.6,1.1,4.1,1.7
		C390.8,174.5,390.5,175.9,390.2,177.4z"/>
	<path class="st1" d="M219.1,19.2c-1.7-0.2-3-0.3-4.5-0.4c-0.2-1.2-0.4-2.6-0.6-4c1.3-0.7,2.5-1.3,3.7-2c1,1,2,2,3,3
		C220.2,17,219.6,18.1,219.1,19.2z"/>
	<path class="st1" d="M356.4,207.4c2.3-0.4,4.6-0.8,7.1-1.3c-0.3,2.3-0.4,3.6-0.7,6.1c-2.4-0.8-4.6-1.6-6.8-2.4
		C356.2,209.1,356.3,208.2,356.4,207.4z"/>
	<path class="st1" d="M280,49.4c-2.7-1.3-4.7-2.2-7-3.3c1.6-1.8,2.5-2.8,3.6-4c1.2,0.5,2.3,1,3.8,1.6
		C280.2,44.9,280.2,46.3,280,49.4z"/>
	<path class="st1" d="M79.3,198.7c2-2.3,2.9-3.2,3.7-4.2c1.3,0.6,2.6,1.2,4,1.7c-0.1,1.3-0.3,2.6-0.6,5.1
		C84.1,200.5,82,199.7,79.3,198.7z"/>
	<path class="st1" d="M140.4,208.6c-0.5,1.4-1,2.7-1.5,4c-1.4-0.1-2.7-0.2-4.2-0.3c-0.3-1.2-0.7-2.6-1-4c1.2-0.9,2.3-1.7,3.5-2.6
		C138.3,206.7,139.4,207.7,140.4,208.6z"/>
	<path class="st1" d="M120.2,224.9c1.1-2.6,1.7-3.8,2.2-5.2c1.4,0.1,2.8,0.2,4.2,0.2c0.3,1.4,0.7,2.8,1.3,5.2
		C125.4,225.1,123.2,225,120.2,224.9z"/>
	<path class="st1" d="M207.9,182.8c0.3-2.1,0.7-4.3,1-6.6c2.1,0.8,3.4,1.2,5.8,2c-1.6,2.1-3,3.9-4.4,5.8
		C209.5,183.6,208.7,183.2,207.9,182.8z"/>
	<path class="st1" d="M328.2,182.6c0.3-2.9,0.6-5.1,0.9-7.7c2.2,0.9,3.4,1.4,4.8,2c-0.1,1.1-0.2,2.4-0.3,4
		C332.3,181.4,330.9,181.8,328.2,182.6z"/>
	<path class="st1" d="M172.5,231c-1.8-1.8-2.6-2.8-3.6-3.8c0.6-1.3,1.1-2.6,1.6-3.6c1.6,0.1,3,0.2,5.6,0.5
		C174.8,226.6,173.8,228.6,172.5,231z"/>
	<path class="st1" d="M234,363.2c-2.5-1.2-4.5-2.2-6.5-3.2c0.1-0.7,0.2-1.4,0.2-2c2.2-0.5,4.3-1,7-1.6
		C234.4,359.1,234.2,360.6,234,363.2z"/>
	<path class="st1" d="M261.1,189.1c-2.9,0.6-4.3,0.9-5.7,1.2c-0.6-1.1-1.2-2.3-1.9-3.7c0.7-0.9,1.6-2,3.2-4
		C258.2,184.7,259.4,186.6,261.1,189.1z"/>
	<path class="st1" d="M116.8,171.8c1.7-1.9,2.7-3,3.6-4c1.3,0.6,2.6,1.2,3.8,1.7c-0.2,1.5-0.4,2.9-0.8,5.4
		C121.2,173.9,119.2,172.9,116.8,171.8z"/>
	<path class="st1" d="M223.4,82.2c1.6-1.9,2.4-2.9,3.3-4c1.3,0.5,2.7,1.1,4.1,1.7c-0.2,1.6-0.4,3.1-0.6,5.5
		C227.9,84.3,225.8,83.3,223.4,82.2z"/>
	<path class="st1" d="M135.6,112.7c-0.2,1.4-0.3,2.6-0.6,5.2c-2.4-1-4.4-1.8-6.9-2.8c1.7-2,2.6-3.1,3.6-4.2
		C133.1,111.5,134.3,112.1,135.6,112.7z"/>
	<path class="st1" d="M236.3,277.8c-0.2,1.4-0.3,2.7-0.5,4.2c-1.3,0.3-2.7,0.6-4.1,0.9c-0.7-1.1-1.4-2.2-2.1-3.5
		c0.8-1,1.8-2,2.8-3.2C233.7,276.7,235,277.2,236.3,277.8z"/>
	<path class="st1" d="M217.8,34.3c1.1-2.4,2.1-4.5,3.1-6.5c0.7,0.1,1.4,0.1,2.1,0.2c0.4,2.3,0.9,4.5,1.4,7.2
		C221.7,34.9,220.3,34.7,217.8,34.3z"/>
	<path class="st1" d="M258,280c1.2,0.5,2.4,0.9,3.8,1.5c-0.1,1.3-0.2,2.8-0.3,4.3c-1.4,0.3-2.8,0.6-4.3,0.9
		c-0.7-1.3-1.4-2.6-2.1-3.9C256.1,281.9,257,281,258,280z"/>
	<path class="st1" d="M461,155.6c-2.5-1.1-4.5-1.9-6.5-2.8c0-0.7,0.1-1.4,0.1-2.1c2.2-0.6,4.5-1.2,7.2-1.9
		C461.4,151.5,461.2,152.9,461,155.6z"/>
	<path class="st1" d="M176.8,147.8c-0.3,2.7-0.4,4.1-0.7,6.6c-2.4-1-4.5-1.9-6.6-2.7c0-0.7,0.1-1.4,0.1-2.1
		C171.9,149,174.1,148.4,176.8,147.8z"/>
	<path class="st1" d="M274,239.3c2.1-2.2,3-3.1,3.8-4c1.4,0.6,2.7,1.1,4,1.7c-0.6,1.3-1.1,2.5-2.1,4.6
		C278.8,241.2,276.7,240.3,274,239.3z"/>
	<path class="st1" d="M2.4,185.8c-1-2.6-1.5-3.9-2.4-6.3c2.7-0.1,5-0.2,7.2-0.3c0.3,0.6,0.6,1.3,0.8,1.9
		C6.3,182.6,4.5,184.1,2.4,185.8z"/>
	<path class="st1" d="M165.7,208.3c1.1,1,2,1.9,3,2.8c-0.6,1.2-1.1,2.4-1.8,3.7c-1.4-0.1-2.8-0.3-4.3-0.4c-0.3-1.4-0.5-2.8-0.8-4.3
		C163.1,209.5,164.4,208.9,165.7,208.3z"/>
	<path class="st1" d="M293,94.8c2.6-0.6,4.9-1.1,7.6-1.7c-0.3,2.6-0.5,4-0.6,5.5c-1.4,0.2-2.8,0.5-4.1,0.7
		C295,98.1,294.3,96.9,293,94.8z"/>
	<path class="st1" d="M208.8,130.2c-2.5-1.1-4.5-1.9-6.9-3c1.6-2,2.5-3.1,3.4-4.2c1.3,0.6,2.6,1.1,3.9,1.7
		C209.1,126.1,209,127.5,208.8,130.2z"/>
	<path class="st1" d="M285.5,288c2.8,1.3,3.9,1.8,6,2.8c-1.5,1.9-2.8,3.6-4,5.3c-0.7-0.2-1.4-0.5-2.2-0.7
		C285.4,293.2,285.5,291,285.5,288z"/>
	<path class="st1" d="M326.1,146.9c-0.2,1.6-0.4,2.9-0.5,4.3c-1.2,0.3-2.5,0.6-3.9,0.9c-0.7-1.1-1.5-2.3-2.3-3.6
		c0.9-1.1,1.9-2.1,2.8-3.1C323.4,145.9,324.6,146.4,326.1,146.9z"/>
	<path class="st1" d="M183.7,222c2.5,0.6,4.3,0.6,4.7,1.3c0.5,1.1,0,2.6,0,4c-1.3-0.3-2.8-0.4-3.9-1.1
		C183.9,225.8,184.1,224.3,183.7,222z"/>
	<path class="st1" d="M280.6,205.9c-0.9,2.5-1,4.3-1.8,4.7c-1,0.5-2.5-0.3-3.8-0.5c0.2-1.2,0.1-2.8,0.8-3.5
		C276.5,206,278.1,206.2,280.6,205.9z"/>
	<path class="st1" d="M251,154.7c-1-1.3-2-2.6-3-4c1.1-0.7,2.2-1.4,3.3-2.1c0.6,1.6,1.2,3.3,1.8,4.9
		C252.4,153.9,251.7,154.3,251,154.7z"/>
	<path class="st1" d="M231.5,174.4c2.5,0.7,4.3,0.6,4.7,1.3c0.5,0.9-0.1,2.4-0.2,3.7c-1.2-0.1-2.8,0.2-3.5-0.4
		C231.8,178.5,231.9,176.8,231.5,174.4z"/>
	<path class="st1" d="M117.2,307.7c-0.8,2.5-0.9,4.3-1.6,4.7c-1,0.5-2.6-0.1-3.9-0.3c0.2-1.2,0-2.8,0.7-3.6
		C113,307.9,114.6,308.1,117.2,307.7z"/>
</g>
</svg>
