<!-- Generated by IcoMoon.io -->
<svg version="1.1" xmlns="http://www.w3.org/2000/svg" width="20" height="20" viewBox="0 0 32 32">
<title>xiaoshujiang</title>
<path d="M11.757 31.878c-0.059-0.175 0.278-0.415 1.579-1.117 1.859-1.004 4.159-2.651 5.526-3.956 0.757-0.722 3.025-2.728 4.163-3.681l0.283-0.237-0.395-0.165c-0.813-0.34-3.627-0.105-5.821 0.485-0.708 0.19-1.713 0.388-2.234 0.439-0.67 0.066-1.202 0.198-1.824 0.454-0.483 0.199-1.166 0.445-1.519 0.546s-0.821 0.277-1.042 0.389c-0.779 0.397-1.319 0.203-1.427-0.514-0.112-0.744-0.358-1.343-0.698-1.695-0.401-0.416-0.573-0.862-0.433-1.125 0.058-0.109 0.32-0.383 0.582-0.61 0.831-0.72 3.497-3.679 3.497-3.882 0-0.242-0.322-0.535-1.020-0.928-0.775-0.437-2.136-1.879-1.773-1.879 0.188 0 1.668 0.583 2.118 0.834 0.249 0.139 0.57 0.392 0.712 0.561 0.151 0.179 0.413 0.336 0.63 0.377 0.365 0.068 0.398 0.042 1.891-1.516 0.836-0.872 1.515-1.636 1.51-1.699s-0.38-0.838-0.832-1.723l-0.821-1.61-0.533-0.034c-0.376-0.024-0.645 0.028-0.912 0.175-0.209 0.115-0.573 0.268-0.809 0.342s-0.475 0.176-0.531 0.228c-0.056 0.052-0.201 0.096-0.322 0.098s-1.013 0.557-1.983 1.233l-1.763 1.229 0.461 0.426c0.299 0.276 0.439 0.484 0.398 0.591-0.089 0.233-0.467 0.206-0.685-0.049-0.222-0.259-0.682-0.278-1.316-0.054-0.251 0.088-0.584 0.161-0.741 0.161-0.391 0-0.762-0.283-0.762-0.583 0-0.137-0.072-0.422-0.161-0.634-0.267-0.638-0.214-1.017 0.171-1.229 0.183-0.101 0.509-0.32 0.724-0.489s0.634-0.427 0.929-0.575c0.295-0.148 0.657-0.376 0.805-0.507 0.274-0.243 2.774-1.241 3.649-1.457 0.266-0.065 0.724-0.209 1.019-0.319s0.695-0.259 0.889-0.33c0.648-0.238 0.643-0.434-0.031-1.475-1.42-2.192-1.728-3.546-1.113-4.9 0.108-0.238 0.198-0.611 0.199-0.829 0.003-0.218 0.046-0.423 0.099-0.456s0.254 0.12 0.447 0.339c0.453 0.516 1.603 2.267 1.603 2.441 0 0.074 0.196 0.357 0.436 0.63s0.449 0.618 0.465 0.767c0.016 0.149 0.133 0.383 0.261 0.519s0.232 0.326 0.232 0.422 0.045 0.202 0.1 0.237c0.055 0.034 0.175 0.32 0.267 0.636 0.207 0.712 0.379 0.869 0.84 0.766 0.192-0.042 0.976-0.12 1.744-0.173s1.602-0.125 1.855-0.162c1.101-0.161 1.673 0.134 3.268 1.683 0.822 0.798 0.819 0.987-0.024 1.581-0.353 0.249-1.019 0.806-1.481 1.237-0.55 0.515-1.179 0.967-1.826 1.313-0.543 0.29-0.987 0.588-0.987 0.662s-0.072 0.134-0.158 0.134-0.297 0.137-0.468 0.304c-0.279 0.273-0.297 0.331-0.177 0.563 0.074 0.143 0.17 0.428 0.214 0.635s0.188 0.714 0.319 1.127c0.225 0.707 0.232 0.821 0.118 1.943-0.102 0.997-0.169 1.264-0.414 1.634-0.431 0.652-0.72 0.81-1.224 0.669-0.226-0.063-0.519-0.114-0.651-0.114s-0.481-0.173-0.774-0.384c-0.582-0.418-1.744-1.012-1.98-1.012-0.21 0-1.707 1.619-2.029 2.195l-0.269 0.482 0.375 0.070c0.229 0.043 0.633 0.003 1.037-0.107 0.684-0.183 1.079-0.216 3.989-0.336 0.946-0.039 2.199-0.164 2.79-0.278 1.494-0.289 4.382-0.291 5.031-0.003 0.504 0.224 0.652 0.379 0.75 0.789 0.038 0.159 0.268 0.449 0.511 0.644s0.61 0.502 0.816 0.681l0.375 0.327-0.093 0.681c-0.067 0.491-0.15 0.714-0.297 0.8-0.112 0.065-0.368 0.296-0.569 0.513-0.472 0.511-1.209 0.978-2.017 1.278-0.354 0.132-0.885 0.421-1.18 0.643s-1.116 0.728-1.824 1.124c-0.708 0.396-1.549 0.906-1.869 1.134-0.338 0.241-0.705 0.415-0.877 0.415-0.163 0-0.44 0.121-0.615 0.268s-0.369 0.268-0.429 0.268-0.468 0.193-0.905 0.429c-0.477 0.257-1.006 0.454-1.323 0.491-0.29 0.034-0.907 0.234-1.369 0.445-0.948 0.431-2.252 0.62-2.347 0.339zM16.506 17.398c0.126-0.236 0.091-1.361-0.049-1.589-0.063-0.102-0.123-0.081-0.24 0.086-0.086 0.122-0.226 0.223-0.311 0.223s-0.155 0.078-0.155 0.172c0 0.095-0.149 0.36-0.331 0.59-0.284 0.358-0.303 0.418-0.134 0.422 0.108 0.003 0.318 0.073 0.465 0.157 0.378 0.216 0.617 0.197 0.755-0.061zM20.513 8.41c-0.151-0.019-0.756 0.041-1.343 0.134s-1.271 0.172-1.519 0.177c-0.546 0.009-0.923 0.135-0.741 0.248 0.069 0.043 0.204 0.353 0.3 0.689s0.271 0.84 0.389 1.118l0.214 0.507 1.488-1.419c1.343-1.28 1.461-1.422 1.212-1.454z"></path>
</svg>
